<svg xmlns="http://www.w3.org/2000/svg" xmlns:xlink="http://www.w3.org/1999/xlink" width="128" height="128" viewBox="0 0 128 128"><linearGradient id="a" x1="19.885" x2="107.514" y1="57.866" y2="57.866" gradientUnits="userSpaceOnUse"><stop offset="0" stop-color="#1657a7"/><stop offset=".024" stop-color="#5799e8" stop-opacity=".996"/><stop offset=".082" stop-color="#195076"/><stop offset=".622" stop-color="#2882bf"/><stop offset=".853" stop-color="#0a98fb"/><stop offset=".926" stop-color="#1e69ac" stop-opacity=".976"/><stop offset="1" stop-color="#134c92" stop-opacity=".957"/></linearGradient><linearGradient id="b" x1="19.885" x2="106" y1="56.099" y2="56.099" gradientUnits="userSpaceOnUse"><stop offset="0" stop-color="#1657a7"/><stop offset=".048" stop-color="#afcff4" stop-opacity=".996"/><stop offset=".082" stop-color="#277fb9"/><stop offset=".588" stop-color="#3e99d7"/><stop offset=".804" stop-color="#0a98fb"/><stop offset=".902" stop-color="#1e69ac" stop-opacity=".976"/><stop offset="1" stop-color="#134c92" stop-opacity=".957"/></linearGradient><linearGradient id="c" x1="26.385" x2="66.473" y1="109" y2="109" gradientUnits="userSpaceOnUse"><stop offset="0" stop-color="#c0bfbc"/><stop offset=".028" stop-color="#dedddc"/><stop offset=".075" stop-color="#bdbdb9"/><stop offset=".655" stop-color="#c4c3c0"/><stop offset=".939" stop-color="#b8b7b3"/><stop offset="1" stop-color="#9f9d99"/></linearGradient><linearGradient id="d" x1="40.664" x2="47.028" y1="111.079" y2="128.634" gradientUnits="userSpaceOnUse"><stop offset="0" stop-color="#f6f5f4"/><stop offset="1" stop-color="#cbc6c0"/></linearGradient><linearGradient id="e" x1="27.385" x2="65.385" y1="115.5" y2="115.5" gradientUnits="userSpaceOnUse"><stop offset="0" stop-color="#6a6966"/><stop offset=".471" stop-color="#a09f9d"/><stop offset="1" stop-color="#a2a09e"/></linearGradient><clipPath id="f"><rect width="128" height="128"/></clipPath><clipPath id="g"><rect width="128" height="128"/></clipPath><filter id="h" width="100%" height="100%" x="0%" y="0%"><feColorMatrix in="SourceGraphic" type="matrix" values="0 0 0 0 1 0 0 0 0 1 0 0 0 0 1 0 0 0 1 0"/></filter><mask id="i"><g clip-path="url(#g)" filter="url(#h)"><g clip-path="url(#f)"><path fill="url(#a)" d="m 64.382812 7.964844 c -24.300781 0 -44 19.65625 -44 43.902344 c 0.011719 0.632812 0.03125 1.269531 0.066407 1.902343 h -0.066407 v 38 h 0.015626 c 0.230468 5.414063 4.570312 9.75 9.984374 9.976563 v 0.023437 h 34 c 24.300782 0 44 -17.359375 44 -49.902343 c 0.003907 -24.246094 -19.695312 -43.902344 -44 -43.902344 z m 0 0"/><path fill="url(#b)" d="m 64.382812 6.199219 c -24.300781 0 -44 19.652343 -44 43.902343 c 0.011719 0.632813 0.03125 1.265626 0.070313 1.898438 h -0.070313 v 32 h 0.015626 c 0.230468 5.414062 4.570312 9.75 9.984374 9.980469 v 0.019531 h 34 c 24.300782 0 44 -19.65625 44 -43.898438 c 0.003907 -24.25 -19.695312 -43.902343 -44 -43.902343 z m 0 0"/><path fill="#51a2da" d="m 64.382812 4.199219 c -24.300781 0 -44 19.652343 -44 43.902343 c 0.011719 0.632813 0.03125 1.265626 0.070313 1.898438 h -0.070313 v 32 h 0.015626 c 0.230468 5.414062 4.570312 9.75 9.984374 9.980469 v 0.019531 h 34 c 24.300782 0 44 -19.65625 44 -43.898438 c 0.003907 -24.25 -19.695312 -43.902343 -44 -43.902343 z m 0 0"/><path fill="url(#c)" d="m 30.363281 94 h 32.132813 c 2.195312 0 3.976562 1.78125 3.976562 3.976562 v 17.253907 c 0 2.195312 -1.78125 3.976562 -3.976562 3.976562 h -32.132813 c -2.199219 0 -3.980469 -1.78125 -3.980469 -3.976562 v -17.253907 c 0 -2.195312 1.78125 -3.976562 3.980469 -3.976562 z m 0 0"/><path fill="url(#d)" d="m 30.804688 111.078125 h 31.160156 c 2.441406 0 4.417968 1.980469 4.417968 4.421875 s -1.976562 4.421875 -4.417968 4.421875 h -31.160156 c -2.441407 0 -4.421876 -1.980469 -4.421876 -4.421875 s 1.980469 -4.421875 4.421876 -4.421875 z m 0 0"/><path fill="url(#e)" d="m 30.882812 112 h 31 c 1.933594 0 3.5 1.566406 3.5 3.5 s -1.566406 3.5 -3.5 3.5 h -31 c -1.929687 0 -3.5 -1.566406 -3.5 -3.5 s 1.570313 -3.5 3.5 -3.5 z m 0 0"/><path fill-opacity=".177" d="m 30.359375 94 c -2.203125 0 -3.976563 1.773438 -3.976563 3.976562 v 2 c 0 -2.203124 1.773438 -3.976562 3.976563 -3.976562 h 32.136719 c 2.203125 0 3.976562 1.773438 3.976562 3.976562 v -2 c 0 -2.203124 -1.773437 -3.976562 -3.976562 -3.976562 z m 0 0"/><path fill="#fff" d="m 73.414062 24.160156 c 7.1875 0 13.96875 5.503906 13.96875 13.09375 c 0 0.703125 0.007813 1.410156 -0.109374 2.207032 c -0.199219 2.019531 -2.042969 3.472656 -4.054688 3.1875 c -2.007812 -0.289063 -3.371094 -2.199219 -3 -4.195313 c 0.035156 -0.226563 0.046875 -0.582031 0.046875 -1.199219 c 0 -4.304687 -3.523437 -5.964844 -6.851563 -5.964844 c -3.328124 0 -6.328124 2.800782 -6.335937 5.964844 c 0.058594 3.664063 0 7.296875 0 10.953125 l 6.179687 -0.046875 c 4.820313 -0.097656 4.875 7.164063 0.054688 7.128906 l -6.234375 0.046876 c -0.015625 2.945312 0.023437 2.414062 0.007813 3.894531 c 0 0 0.050781 3.605469 -0.054688 6.335937 c -0.746094 8.023438 -7.578125 14.433594 -15.78125 14.433594 c -8.699219 0 -15.867188 -7.109375 -15.867188 -15.828125 c 0.261719 -8.96875 7.414063 -16.019531 16.421876 -15.9375 l 5.023437 -0.039063 v 7.121094 l -5.023437 0.046875 h -0.027344 c -4.949219 0.144531 -9.191406 3.507813 -9.273438 8.808594 c 0 4.828125 3.902344 8.699219 8.746094 8.699219 c 4.835938 0 8.707031 -3.519532 8.707031 -8.691406 l -0.003906 -26.953126 c 0 -0.5 0.015625 -0.898437 0.070313 -1.449218 c 0.816406 -6.59375 6.714843 -11.617188 13.390624 -11.617188 z m 0 0"/></g></g></mask><mask id="j"><g filter="url(#h)"><rect width="128" height="128" fill-opacity=".8"/></g></mask><linearGradient id="k" x1="300" x2="428" y1="235" y2="235" gradientTransform="matrix(0 0.37 -0.98462 0 295.38501 -30.360001)" gradientUnits="userSpaceOnUse"><stop offset="0" stop-color="#f9f06b"/><stop offset="1" stop-color="#f5c211"/></linearGradient><clipPath id="l"><rect width="128" height="128"/></clipPath><clipPath id="m"><rect width="128" height="128"/></clipPath><path fill="url(#a)" d="m 64.382812 7.964844 c -24.300781 0 -44 19.65625 -44 43.902344 c 0.011719 0.632812 0.03125 1.269531 0.066407 1.902343 h -0.066407 v 38 h 0.015626 c 0.230468 5.414063 4.570312 9.75 9.984374 9.976563 v 0.023437 h 34 c 24.300782 0 44 -17.359375 44 -49.902343 c 0.003907 -24.246094 -19.695312 -43.902344 -44 -43.902344 z m 0 0"/><path fill="url(#b)" d="m 64.382812 6.199219 c -24.300781 0 -44 19.652343 -44 43.902343 c 0.011719 0.632813 0.03125 1.265626 0.070313 1.898438 h -0.070313 v 32 h 0.015626 c 0.230468 5.414062 4.570312 9.75 9.984374 9.980469 v 0.019531 h 34 c 24.300782 0 44 -19.65625 44 -43.898438 c 0.003907 -24.25 -19.695312 -43.902343 -44 -43.902343 z m 0 0"/><path fill="#51a2da" d="m 64.382812 4.199219 c -24.300781 0 -44 19.652343 -44 43.902343 c 0.011719 0.632813 0.03125 1.265626 0.070313 1.898438 h -0.070313 v 32 h 0.015626 c 0.230468 5.414062 4.570312 9.75 9.984374 9.980469 v 0.019531 h 34 c 24.300782 0 44 -19.65625 44 -43.898438 c 0.003907 -24.25 -19.695312 -43.902343 -44 -43.902343 z m 0 0"/><path fill="url(#c)" d="m 30.363281 94 h 32.132813 c 2.195312 0 3.976562 1.78125 3.976562 3.976562 v 17.253907 c 0 2.195312 -1.78125 3.976562 -3.976562 3.976562 h -32.132813 c -2.199219 0 -3.980469 -1.78125 -3.980469 -3.976562 v -17.253907 c 0 -2.195312 1.78125 -3.976562 3.980469 -3.976562 z m 0 0"/><path fill="url(#d)" d="m 30.804688 111.078125 h 31.160156 c 2.441406 0 4.417968 1.980469 4.417968 4.421875 s -1.976562 4.421875 -4.417968 4.421875 h -31.160156 c -2.441407 0 -4.421876 -1.980469 -4.421876 -4.421875 s 1.980469 -4.421875 4.421876 -4.421875 z m 0 0"/><path fill="url(#e)" d="m 30.882812 112 h 31 c 1.933594 0 3.5 1.566406 3.5 3.5 s -1.566406 3.5 -3.5 3.5 h -31 c -1.929687 0 -3.5 -1.566406 -3.5 -3.5 s 1.570313 -3.5 3.5 -3.5 z m 0 0"/><path fill-opacity=".177" d="m 30.359375 94 c -2.203125 0 -3.976563 1.773438 -3.976563 3.976562 v 2 c 0 -2.203124 1.773438 -3.976562 3.976563 -3.976562 h 32.136719 c 2.203125 0 3.976562 1.773438 3.976562 3.976562 v -2 c 0 -2.203124 -1.773437 -3.976562 -3.976562 -3.976562 z m 0 0"/><path fill="#fff" d="m 73.414062 24.160156 c 7.1875 0 13.96875 5.503906 13.96875 13.09375 c 0 0.703125 0.007813 1.410156 -0.109374 2.207032 c -0.199219 2.019531 -2.042969 3.472656 -4.054688 3.1875 c -2.007812 -0.289063 -3.371094 -2.199219 -3 -4.195313 c 0.035156 -0.226563 0.046875 -0.582031 0.046875 -1.199219 c 0 -4.304687 -3.523437 -5.964844 -6.851563 -5.964844 c -3.328124 0 -6.328124 2.800782 -6.335937 5.964844 c 0.058594 3.664063 0 7.296875 0 10.953125 l 6.179687 -0.046875 c 4.820313 -0.097656 4.875 7.164063 0.054688 7.128906 l -6.234375 0.046876 c -0.015625 2.945312 0.023437 2.414062 0.007813 3.894531 c 0 0 0.050781 3.605469 -0.054688 6.335937 c -0.746094 8.023438 -7.578125 14.433594 -15.78125 14.433594 c -8.699219 0 -15.867188 -7.109375 -15.867188 -15.828125 c 0.261719 -8.96875 7.414063 -16.019531 16.421876 -15.9375 l 5.023437 -0.039063 v 7.121094 l -5.023437 0.046875 h -0.027344 c -4.949219 0.144531 -9.191406 3.507813 -9.273438 8.808594 c 0 4.828125 3.902344 8.699219 8.746094 8.699219 c 4.835938 0 8.707031 -3.519532 8.707031 -8.691406 l -0.003906 -26.953126 c 0 -0.5 0.015625 -0.898437 0.070313 -1.449218 c 0.816406 -6.59375 6.714843 -11.617188 13.390624 -11.617188 z m 0 0"/><g clip-path="url(#m)" mask="url(#i)"><g clip-path="url(#l)" mask="url(#j)"><path fill="url(#k)" d="m 128 80.640625 v 47.359375 h -128 v -47.359375 z m 0 0"/><path d="m 13.308594 80.640625 l 47.355468 47.359375 h 21.214844 l -47.359375 -47.359375 z m 42.421875 0 l 47.363281 47.359375 h 21.214844 l -47.363282 -47.359375 z m 42.429687 0 l 29.839844 29.839844 v -21.210938 l -8.628906 -8.628906 z m -98.160156 7.90625 v 21.214844 l 18.238281 18.238281 h 21.214844 z m 0 0"/></g></g></svg>