<svg xmlns="http://www.w3.org/2000/svg" xmlns:svg="http://www.w3.org/2000/svg" id="svg7843" width="48" height="48" version="1.1" viewBox="0 0 48 48"><metadata id="metadata7848"/><g id="layer1" transform="translate(0,-1004.3622)"><g id="g8401" transform="translate(-0.01401633,0.09419463)"><rect id="rect37310" width="47" height="47" x=".514" y="1004.768" rx="23.5" ry="23.5" style="color:#000;display:inline;overflow:visible;visibility:visible;fill:#babdb6;fill-opacity:1;stroke:#888a85;stroke-width:1;stroke-linecap:square;stroke-linejoin:miter;stroke-miterlimit:4;stroke-dasharray:none;stroke-dashoffset:0;stroke-opacity:1;marker:none;enable-background:new"/><path style="display:inline;fill:#fff;fill-opacity:1;stroke:none" id="rect3845" d="m 16.545267,1021.2678 c -0.28913,0 -0.53125,0.2421 -0.53125,0.5312 l 0,13.9376 c 0,0.2985 0.23264,0.5312 0.53125,0.5312 l 14.937503,0 c 0.2986,0 0.53125,-0.2326 0.53125,-0.5312 l 0,-8.9376 c 0,-0.2891 -0.24212,-0.5312 -0.53125,-0.5312 l -12.46875,0 0,7.5 c 0,0.277 -0.223,0.5 -0.5,0.5 -0.277003,0 -0.500003,-0.223 -0.500003,-0.5 l 0,-8 c 0,-0.277 0.223,-0.5 0.500003,-0.5 l 2.96875,0 8.53125,0 0,-1.4062 c 0,-0.3272 -0.26666,-0.5938 -0.59375,-0.5938 l -7.40625,0 0,-1.4688 c 0,-0.2891 -0.24212,-0.5312 -0.53125,-0.5312 z"/></g></g></svg>