<svg xmlns="http://www.w3.org/2000/svg" xmlns:svg="http://www.w3.org/2000/svg" xmlns:xlink="http://www.w3.org/1999/xlink" id="svg5091" width="256" height="256" version="1.1" viewBox="0 0 256 256"><defs id="defs5093"><clipPath id="clipPath6742" clipPathUnits="userSpaceOnUse"><circle id="circle6744" cx="128" cy="924.362" style="opacity:1;fill:none;fill-opacity:1;stroke:#000;stroke-width:4;stroke-linecap:round;stroke-linejoin:round;stroke-miterlimit:4;stroke-dasharray:none;stroke-opacity:1" r="127"/></clipPath></defs><metadata id="metadata5096"/><g id="layer1" transform="translate(0,-796.36216)"><image id="image6739" width="1177" height="773" x="-321.907" y="611.304" clip-path="url(#clipPath6742)" preserveAspectRatio="none" xlink:href="gray_contrast.png"/><path id="path3287" d="m 174.46529,902.56623 c -12.52553,-14.14035 -23.81311,-23.2734 -40.5223,0.53954 -9.94269,14.16977 -69.609405,95.34306 -80.557967,108.27283 -3.180333,3.7558 -5.043391,6.366 -7.485224,7.8789 0.0044,-5.1395 41.215357,-70.40285 52.748564,-89.31597 13.853557,-22.71823 13.413707,-21.39153 11.755857,-21.38551 -2.34695,0.009 -7.1205,3.4705 -14.378929,11.2117 -13.254376,14.13587 -52.509296,66.74702 -55.215611,65.93556 0.940192,-3.82177 31.647791,-50.91092 45.590372,-70.3903 12.019102,-16.79207 7.424802,-18.07195 0.535746,-16.43265 -29.352613,7.00055 -64.458471,23.92492 -65.593796,23.31431 0.424542,-0.87634 118.231818,-83.71808 133.969438,-85.30179 1.83206,-0.18434 5.69756,-3.45186 12.58587,-6.17337 7.47784,-2.95443 12.51051,-5.35753 13.75549,-4.59778 -5.45703,7.6498 -8.33039,9.18928 -8.37893,11.65686 -0.0795,4.04061 -1.5176,10.57735 -3.09242,12.66446 30.44283,20.28027 42.3202,89.42931 51.01712,145.04759 2.07547,13.20129 3.99888,23.11489 4.48941,29.00569 -2.56954,-6.6116 -26.91036,-94.48327 -51.22269,-121.93007 z" style="fill:#fff;fill-opacity:1;stroke:none;stroke-width:.19562718"/></g></svg>