<svg xmlns="http://www.w3.org/2000/svg" xmlns:svg="http://www.w3.org/2000/svg" id="svg7384" width="16" height="16" version="1.1"><metadata id="metadata90"/><title id="title9167">Gnome Symbolic Icon Theme</title><g id="layer10" transform="translate(-201.0002,-448)"><path id="path39797" d="m 208.98907,448.99554 c -3.84231,0 -6.99332,3.15102 -6.99332,6.99332 0,3.8423 3.15101,7.01559 6.99332,7.01559 3.8423,0 7.01559,-3.17329 7.01559,-7.01559 0,-3.8423 -3.17329,-6.99332 -7.01559,-6.99332 z m 0,4.00891 c 1.68054,0 3.00668,1.30387 3.00668,2.98441 0,1.68054 -1.32614,3.00668 -3.00668,3.00668 -1.68055,0 -2.98441,-1.32614 -2.98441,-3.00668 0,-1.68054 1.30386,-2.98441 2.98441,-2.98441 z" style="font-size:medium;font-style:normal;font-variant:normal;font-weight:400;font-stretch:normal;text-indent:0;text-align:start;text-decoration:none;line-height:normal;letter-spacing:normal;word-spacing:normal;text-transform:none;direction:ltr;block-progression:tb;writing-mode:lr-tb;text-anchor:start;baseline-shift:baseline;color:#bebebe;fill:#bebebe;fill-opacity:1;stroke:none;stroke-width:5.61250019;marker:none;visibility:visible;display:inline;overflow:visible;enable-background:accumulate;font-family:Sans;-inkscape-font-specification:Sans"/><path id="path40342" d="m 209.00524,454.0058 c -1.09865,0 -2.01317,0.89789 -2.01317,1.99654 0,1.09864 0.91452,1.99653 2.01317,1.99653 1.09865,0 1.99654,-0.89789 1.99654,-1.99653 0,-1.09865 -0.89789,-1.99654 -1.99654,-1.99654 z m 0,0.99827 c 0.55821,0 0.99827,0.44006 0.99827,0.99827 0,0.5582 -0.44006,0.99826 -0.99827,0.99826 -0.55821,0 -0.99827,-0.44006 -0.99827,-0.99826 0,-0.55821 0.44006,-0.99827 0.99827,-0.99827 z" style="font-size:medium;font-style:normal;font-variant:normal;font-weight:400;font-stretch:normal;text-indent:0;text-align:start;text-decoration:none;line-height:normal;letter-spacing:normal;word-spacing:normal;text-transform:none;direction:ltr;block-progression:tb;writing-mode:lr-tb;text-anchor:start;baseline-shift:baseline;color:#bebebe;fill:#bebebe;fill-opacity:1;stroke:none;stroke-width:1.87825239;marker:none;visibility:visible;display:inline;overflow:visible;enable-background:accumulate;font-family:Sans;-inkscape-font-specification:Sans"/></g></svg>