<svg xmlns="http://www.w3.org/2000/svg" xmlns:svg="http://www.w3.org/2000/svg" xmlns:xlink="http://www.w3.org/1999/xlink" id="svg5091" width="256" height="256" version="1.1" viewBox="0 0 256 256"><defs id="defs5093"><clipPath id="clipPath6742" clipPathUnits="userSpaceOnUse"><circle id="circle6744" cx="128" cy="924.362" style="opacity:1;fill:none;fill-opacity:1;stroke:#000;stroke-width:4;stroke-linecap:round;stroke-linejoin:round;stroke-miterlimit:4;stroke-dasharray:none;stroke-opacity:1" r="127"/></clipPath></defs><metadata id="metadata5096"/><g id="layer1" transform="translate(0,-796.36216)"><image id="image6739" width="1177" height="773" x="-321.907" y="611.304" clip-path="url(#clipPath6742)" preserveAspectRatio="none" xlink:href="gray_contrast.png"/><path style="color:#000;font-style:normal;font-variant:normal;font-weight:400;font-stretch:normal;font-size:medium;line-height:normal;font-family:sans-serif;text-indent:0;text-align:start;text-decoration:none;text-decoration-line:none;text-decoration-style:solid;text-decoration-color:#000;letter-spacing:normal;word-spacing:normal;text-transform:none;direction:ltr;block-progression:tb;writing-mode:lr-tb;baseline-shift:baseline;text-anchor:start;white-space:normal;clip-rule:nonzero;display:inline;overflow:visible;visibility:visible;opacity:1;isolation:auto;mix-blend-mode:normal;color-interpolation:sRGB;color-interpolation-filters:linearRGB;solid-color:#000;solid-opacity:1;fill:#fff;fill-opacity:1;fill-rule:nonzero;stroke:none;stroke-width:2.85765553;stroke-linecap:round;stroke-linejoin:round;stroke-miterlimit:4;stroke-dasharray:none;stroke-dashoffset:0;stroke-opacity:1;color-rendering:auto;image-rendering:auto;shape-rendering:auto;text-rendering:auto;enable-background:accumulate" id="path4515" d="m 107.95936,831.21679 c -4.40608,0 -8.06721,3.66113 -8.06721,8.0672 0,3.83565 2.77802,7.10128 6.40325,7.88396 l 0,28.23274 c -0.88473,1.41634 -1.71971,2.86484 -2.3127,4.19454 l -51.40429,115.22881 0,0.005 c -0.19118,0.42942 -0.33979,0.87509 -0.44075,1.3272 l 0,0.005 c -0.10092,0.45372 -0.15721,0.91077 -0.17344,1.36682 -0.0327,0.91087 0.0994,1.80594 0.37144,2.60494 0.54423,1.5978 1.525,2.849 2.63953,3.8429 2.22907,1.9877 5.05768,3.1546 8.1316,3.1546 l 129.78342,0 c 1.53931,0 3.01568,-0.2896 4.38769,-0.832 1.36963,-0.5401 2.63355,-1.3285 3.74886,-2.3226 0.27975,-0.2493 0.5492,-0.5144 0.80722,-0.7973 0.77167,-0.8456 1.42424,-1.8505 1.83231,-3.0506 0.1354,-0.39863 0.23454,-0.82103 0.29714,-1.25788 l 0,-0.005 c 0.0624,-0.43857 0.0865,-0.89048 0.0692,-1.34701 -0.0342,-0.91305 -0.23124,-1.84248 -0.61903,-2.70393 l -23.90943,-53.1029 a 3.6232241,3.6232241 0 0 0 -0.0152,-0.0254 l -27.9598,-62.10116 c -0.50442,-1.12028 -1.1524,-2.32431 -1.82737,-3.51115 l 0,-28.90624 c 3.6252,-0.78267 6.40325,-4.04831 6.40325,-7.88396 0,-4.40607 -3.66113,-8.0672 -8.0672,-8.0672 l -40.0785,0 z m 0,7.24512 40.0785,0 c 0.51725,0 0.82207,0.3048 0.82207,0.82208 0,0.51725 -0.30482,0.82205 -0.82207,0.82205 l -40.0785,0 c -0.51729,0 -0.82208,-0.3048 -0.82208,-0.82205 0,-0.51728 0.30479,-0.82208 0.82208,-0.82208 z m 5.58117,9.03784 28.91615,0 0,29.41632 a 3.6232241,3.6232241 0 0 0 0.60912,2.01062 c 0.58206,0.8722 1.19576,2.16621 1.85708,3.63495 l 25.67243,57.01515 -85.43609,0 25.44464,-57.03001 c 0.78429,-1.75869 1.51547,-3.25163 2.15917,-4.06579 a 3.6232241,3.6232241 0 0 0 0.7775,-2.24833 l 0,-28.7329 z m -8.83482,110.89064 c 5.48315,-3e-5 10.01841,4.51451 10.01841,9.99855 -2e-5,5.48404 -4.53533,9.99858 -10.01841,9.99858 -5.48302,0 -10.01341,-4.51454 -10.01341,-9.99858 -3e-5,-5.48404 4.53031,-9.99858 10.01341,-9.99855 z m 25.91016,10.5136 c 7.42338,0 13.52457,6.08503 13.52457,13.50476 0,7.41972 -6.10119,13.50479 -13.52457,13.50479 -7.42352,0 -13.52953,-6.08507 -13.52953,-13.50479 0,-7.41973 6.10608,-13.50476 13.52953,-13.50476 z m -49.22531,3.18923 c 3.51668,-0.17419 6.99451,1.71979 8.62185,5.05624 2.1698,4.44862 0.27673,9.91775 -4.17473,12.07852 -4.45148,2.16082 -9.91861,0.27886 -12.08843,-4.16979 -2.16982,-4.44862 -0.27179,-9.91774 4.1797,-12.07851 1.11288,-0.5402 2.2894,-0.82839 3.46161,-0.88646 z"/></g></svg>