<svg xmlns="http://www.w3.org/2000/svg" xmlns:svg="http://www.w3.org/2000/svg" xmlns:xlink="http://www.w3.org/1999/xlink" id="svg5091" width="256" height="256" version="1.1" viewBox="0 0 256 256"><defs id="defs5093"><clipPath id="clipPath6742" clipPathUnits="userSpaceOnUse"><circle id="circle6744" cx="128" cy="924.362" style="opacity:1;fill:none;fill-opacity:1;stroke:#000;stroke-width:4;stroke-linecap:round;stroke-linejoin:round;stroke-miterlimit:4;stroke-dasharray:none;stroke-opacity:1" r="127"/></clipPath></defs><metadata id="metadata5096"/><g id="layer1" transform="translate(0,-796.36216)"><image id="image6739" width="1177" height="773" x="-321.907" y="611.304" clip-path="url(#clipPath6742)" preserveAspectRatio="none" xlink:href="gray_contrast.png"/><path style="fill:#fff;fill-opacity:1;stroke:none;stroke-width:2.85765553;stroke-linecap:round;stroke-linejoin:round;stroke-miterlimit:4;stroke-dasharray:none;stroke-opacity:1" id="path4521" d="m 128.00496,829.3745 c -28.604206,0 -51.874759,23.21624 -51.874759,51.7658 0,0.98557 -0.0355,2.30253 -0.05933,3.46657 l -0.401149,0 c -15.886986,0 -28.787374,12.90533 -28.787374,28.79234 l 0,59.51606 c 0,15.887 12.900388,28.79233 28.787374,28.79233 l 104.6508,0 c 15.88702,0 28.79235,-12.90533 28.79235,-28.79233 l 0,-59.51606 c 0,-15.887 -12.90533,-28.79234 -28.79235,-28.79234 l -0.38132,0 c -0.0228,-1.1641 -0.0545,-2.49303 -0.0545,-3.46657 0,-28.54954 -23.27524,-51.7658 -51.87968,-51.7658 z m -0.005,25.61796 0.005,0 c 15.84079,0.003 28.59919,12.73077 28.59919,28.51996 0,0.33248 0.0152,0.74478 0.0203,1.09445 l -57.238027,0 c 0.0051,-0.35113 0.02028,-0.75946 0.02028,-1.09445 0,-15.78921 12.753203,-28.51728 28.594243,-28.51996 z m 0,64.28011 a 15.841186,15.803087 0 0 1 15.84223,15.80756 15.841186,15.803087 0 0 1 -8.28511,13.86628 c 0.0634,0.39478 0.10396,0.80077 0.10396,1.2133 l 0,16.99115 c 0,4.23563 -3.42005,7.64131 -7.66608,7.64131 -4.24603,-1e-5 -7.6611,-3.40568 -7.6611,-7.64131 l 0,-16.99115 c 0,-0.40797 0.0431,-0.80822 0.10395,-1.19844 a 15.841186,15.803087 0 0 1 -8.28013,-13.88114 15.841186,15.803087 0 0 1 15.8422,-15.80756 z"/></g></svg>