<svg xmlns="http://www.w3.org/2000/svg" xmlns:svg="http://www.w3.org/2000/svg" id="svg9117" width="76.074" height="76.074" version="1.1" viewBox="0 0 71.319 71.319"><defs id="defs9119"><clipPath id="clipPath39143" clipPathUnits="userSpaceOnUse"><circle id="circle39145" cx="-26.775" cy="445.633" style="fill:#e59728;fill-opacity:1;stroke:none;stroke-width:.99510342" r="35.66"/></clipPath></defs><metadata id="metadata9122"/><g id="layer1" transform="translate(-275.57814,-290.98823)"><g id="g39273" transform="translate(336.01275,-364.98556)"><g id="g39147" clip-path="url(#clipPath39143)" transform="translate(2,246)"><g id="g39149" transform="matrix(0.32904645,-0.37472332,0.29061618,0.42427569,-161.17604,202.97738)" style="fill:#79db32;stroke:none"><path id="path39151" style="fill:#6cc82d;stroke:none;stroke-width:1" d="m -114.14609,448.17209 34.874148,8.58365 9.253136,-17.16724 z"/><path id="path39153" style="fill:#7fd138;stroke:none;stroke-width:1" d="M -8.7693122,473.92294 -70.018806,439.5885 -41.489052,465.33932 Z"/><path id="path39155" style="fill:#77cb30;stroke:none;stroke-width:1" d="m -79.271942,456.75574 37.78289,8.58358 -28.529754,-25.75082 z"/><path id="path39157" style="fill:#9ad33e;stroke:none;stroke-width:1" d="m -102.17067,491.09021 22.898728,-34.33447 -34.874148,-8.58365 z"/><path id="path39159" style="fill:#7fcd31;stroke:none;stroke-width:1" d="m -138.72661,482.50656 36.55594,8.58365 -11.97542,-42.91812 z"/><path id="path39161" style="fill:#7dcd30;stroke:none;stroke-width:1" d="m -79.271942,456.75574 20.775837,51.50171 17.007053,-42.91813 z"/><path id="path39163" style="fill:#79c931;stroke:none;stroke-width:1" d="m -102.17067,491.09021 43.674565,17.16724 -20.775837,-51.50171 z"/><path id="path39165" style="fill:#8dd63d;stroke:none;stroke-width:1" d="m -41.489052,465.33932 22.206545,51.50174 10.5131948,-42.91812 z"/><path id="path39167" style="fill:#81cd31;stroke:none;stroke-width:1" d="M -19.282507,516.84106 16.965498,499.67383 -8.7693122,473.92294 Z"/><path id="path39169" style="fill:#83d03d;stroke:none;stroke-width:1" d="m -58.496105,508.25745 39.213598,8.58361 -22.206545,-51.50174 z"/><path id="path39171" style="fill:#95d238;stroke:none;stroke-width:1" d="m -102.17067,491.09021 23.062409,34.33447 20.612156,-17.16723 z"/><path id="path39173" style="fill:#52c22d;stroke:none;stroke-width:1" d="m -19.282507,516.84106 33.955797,17.16718 2.292208,-34.33441 z"/><path id="path39175" style="fill:#6ed036;stroke:none;stroke-width:1" d="m -138.72661,482.50656 21.90048,60.0853 14.65546,-51.50165 z"/><path id="path39177" style="fill:#8ace3d;stroke:none;stroke-width:1" d="m -116.82613,542.59186 37.717869,-17.16718 -23.062409,-34.33447 z"/><path id="path39179" style="fill:#79d841;stroke:none;stroke-width:1" d="m -42.436211,551.17554 23.153704,-34.33448 -39.213598,-8.58361 z"/><path id="path39181" style="fill:#7ad844;stroke:none;stroke-width:1" d="m -79.108261,525.42468 36.67205,25.75086 -16.059894,-42.91809 z"/><path id="path39183" style="fill:#78d235;stroke:none;stroke-width:1" d="M -10.810422,559.75916 14.67329,534.00824 -19.282507,516.84106 Z"/><path id="path39185" style="fill:#9edc53;stroke:none;stroke-width:1" d="m -42.436211,551.17554 31.625789,8.58362 -8.472085,-42.9181 z"/><path id="path39187" style="fill:#3ecc30;stroke:none;stroke-width:1" d="m -77.325806,568.34277 34.889595,-17.16723 -36.67205,-25.75086 z"/><path id="path39189" style="fill:#72d436;stroke:none;stroke-width:1" d="m -116.82613,542.59186 39.500324,25.75091 -1.782455,-42.91809 z"/><path id="path39191" style="fill:#77cd3d;stroke:none;stroke-width:1" d="M -10.810422,559.75916 34.224415,576.92639 14.67329,534.00824 Z"/><path id="path39193" style="fill:#7fd236;stroke:none;stroke-width:1" d="m -107.34646,585.51001 30.020654,-17.16724 -39.500324,-25.75091 z"/><path id="path39195" style="fill:#a9d62c;stroke:none;stroke-width:1" d="m -39.004448,594.09363 28.194026,-34.33447 -31.625789,-8.58362 z"/><path id="path39197" style="fill:#69d03e;stroke:none;stroke-width:1" d="m -77.325806,568.34277 38.321358,25.75086 -3.431763,-42.91809 z"/><path id="path39199" style="fill:#76c733;stroke:none;stroke-width:1" d="M 3.3373265,602.67725 34.224415,576.92639 -10.810422,559.75916 Z"/><path id="path39201" style="fill:#6cd43f;stroke:none;stroke-width:1" d="M 34.224415,576.92639 16.965498,499.67383 14.67329,534.00824 Z"/><path id="path39203" style="fill:#9ad43a;stroke:none;stroke-width:1" d="M -39.004448,594.09363 3.3373265,602.67725 -10.810422,559.75916 Z"/><path id="path39205" style="fill:#85d32e;stroke:none;stroke-width:1" d="m -107.34646,585.51001 68.342012,8.58362 -38.321358,-25.75086 z"/><path id="path39207" style="fill:#a7d63a;stroke:none;stroke-width:1" d="m -138.72661,482.50656 31.38015,103.00345 -9.47967,-42.91815 z"/><path id="path39209" style="fill:#60d231;stroke:none;stroke-width:1" d="M -107.34646,585.51001 3.3373265,602.67725 -39.004448,594.09363 Z"/></g><g style="fill:#79db32;stroke:none" id="g39211" transform="matrix(0.32904645,-0.37472332,0.29061618,0.42427569,-161.17604,202.97738)"><path d="m -114.14609,448.17209 34.874148,8.58365 9.253136,-17.16724 z" style="fill:#6cc82d;stroke:none;stroke-width:1" id="path39213"/><path d="M -8.7693122,473.92294 -70.018806,439.5885 -41.489052,465.33932 Z" style="fill:#7fd138;stroke:none;stroke-width:1" id="path39215"/><path d="m -79.271942,456.75574 37.78289,8.58358 -28.529754,-25.75082 z" style="fill:#77cb30;stroke:none;stroke-width:1" id="path39217"/><path d="m -102.17067,491.09021 22.898728,-34.33447 -34.874148,-8.58365 z" style="fill:#9ad33e;stroke:none;stroke-width:1" id="path39219"/><path d="m -138.72661,482.50656 36.55594,8.58365 -11.97542,-42.91812 z" style="fill:#7fcd31;stroke:none;stroke-width:1" id="path39221"/><path d="m -79.271942,456.75574 20.775837,51.50171 17.007053,-42.91813 z" style="fill:#7dcd30;stroke:none;stroke-width:1" id="path39223"/><path d="m -102.17067,491.09021 43.674565,17.16724 -20.775837,-51.50171 z" style="fill:#79c931;stroke:none;stroke-width:1" id="path39225"/><path d="m -41.489052,465.33932 22.206545,51.50174 10.5131948,-42.91812 z" style="fill:#8dd63d;stroke:none;stroke-width:1" id="path39227"/><path d="M -19.282507,516.84106 16.965498,499.67383 -8.7693122,473.92294 Z" style="fill:#81cd31;stroke:none;stroke-width:1" id="path39229"/><path d="m -58.496105,508.25745 39.213598,8.58361 -22.206545,-51.50174 z" style="fill:#83d03d;stroke:none;stroke-width:1" id="path39231"/><path d="m -102.17067,491.09021 23.062409,34.33447 20.612156,-17.16723 z" style="fill:#95d238;stroke:none;stroke-width:1" id="path39233"/><path d="m -19.282507,516.84106 33.955797,17.16718 2.292208,-34.33441 z" style="fill:#52c22d;stroke:none;stroke-width:1" id="path39235"/><path d="m -138.72661,482.50656 21.90048,60.0853 14.65546,-51.50165 z" style="fill:#6ed036;stroke:none;stroke-width:1" id="path39237"/><path d="m -116.82613,542.59186 37.717869,-17.16718 -23.062409,-34.33447 z" style="fill:#8ace3d;stroke:none;stroke-width:1" id="path39239"/><path d="m -42.436211,551.17554 23.153704,-34.33448 -39.213598,-8.58361 z" style="fill:#79d841;stroke:none;stroke-width:1" id="path39241"/><path d="m -79.108261,525.42468 36.67205,25.75086 -16.059894,-42.91809 z" style="fill:#7ad844;stroke:none;stroke-width:1" id="path39243"/><path d="M -10.810422,559.75916 14.67329,534.00824 -19.282507,516.84106 Z" style="fill:#78d235;stroke:none;stroke-width:1" id="path39245"/><path d="m -42.436211,551.17554 31.625789,8.58362 -8.472085,-42.9181 z" style="fill:#9edc53;stroke:none;stroke-width:1" id="path39247"/><path d="m -77.325806,568.34277 34.889595,-17.16723 -36.67205,-25.75086 z" style="fill:#3ecc30;stroke:none;stroke-width:1" id="path39249"/><path d="m -116.82613,542.59186 39.500324,25.75091 -1.782455,-42.91809 z" style="fill:#72d436;stroke:none;stroke-width:1" id="path39251"/><path d="M -10.810422,559.75916 34.224415,576.92639 14.67329,534.00824 Z" style="fill:#77cd3d;stroke:none;stroke-width:1" id="path39253"/><path d="m -107.34646,585.51001 30.020654,-17.16724 -39.500324,-25.75091 z" style="fill:#7fd236;stroke:none;stroke-width:1" id="path39255"/><path d="m -39.004448,594.09363 28.194026,-34.33447 -31.625789,-8.58362 z" style="fill:#a9d62c;stroke:none;stroke-width:1" id="path39257"/><path d="m -77.325806,568.34277 38.321358,25.75086 -3.431763,-42.91809 z" style="fill:#69d03e;stroke:none;stroke-width:1" id="path39259"/><path d="M 3.3373265,602.67725 34.224415,576.92639 -10.810422,559.75916 Z" style="fill:#76c733;stroke:none;stroke-width:1" id="path39261"/><path d="M 34.224415,576.92639 16.965498,499.67383 14.67329,534.00824 Z" style="fill:#6cd43f;stroke:none;stroke-width:1" id="path39263"/><path d="M -39.004448,594.09363 3.3373265,602.67725 -10.810422,559.75916 Z" style="fill:#9ad43a;stroke:none;stroke-width:1" id="path39265"/><path d="m -107.34646,585.51001 68.342012,8.58362 -38.321358,-25.75086 z" style="fill:#85d32e;stroke:none;stroke-width:1" id="path39267"/><path d="m -138.72661,482.50656 31.38015,103.00345 -9.47967,-42.91815 z" style="fill:#a7d63a;stroke:none;stroke-width:1" id="path39269"/><path d="M -107.34646,585.51001 3.3373265,602.67725 -39.004448,594.09363 Z" style="fill:#60d231;stroke:none;stroke-width:1" id="path39271"/></g></g><g id="g12308"><g style="fill:#fff" id="g11042" transform="matrix(0.24013272,0,0,0.24013272,-778.59561,347.64246)"><rect id="rect11044" width="97.581" height="169.706" x="1356.813" y="-3222.38" rx="14.142" ry="14.142" style="fill:#fff;fill-opacity:1;stroke:none" transform="rotate(90)"/><rect rx="14.142" style="fill:#fff;fill-opacity:1;stroke:none" id="rect11046" width="42.426" height="169.706" x="1465.967" y="-3222.38" ry="14.142" transform="rotate(90)"/></g></g></g></g></svg>